<?xml version="1.0" encoding="UTF-8"?>
<svg id="Calque_2" xmlns="http://www.w3.org/2000/svg" xmlns:xlink="http://www.w3.org/1999/xlink" version="1.1" viewBox="0 0 293.9 202.8">
  <!-- Generator: Adobe Illustrator 29.8.2, SVG Export Plug-In . SVG Version: 2.1.1 Build 3)  -->
  <defs>
    <style>
      .st0 {
        fill: #f1ebf9;
      }

      .st1 {
        isolation: isolate;
      }

      .st2 {
        stroke: url(#Dégradé_sans_nom_3);
      }

      .st2, .st3, .st4, .st5, .st6, .st7, .st8 {
        fill: #fff;
        stroke-miterlimit: 10;
        stroke-width: .2px;
      }

      .st3 {
        stroke: url(#Dégradé_sans_nom_7);
      }

      .st4 {
        stroke: url(#Dégradé_sans_nom_6);
      }

      .st5 {
        stroke: url(#Dégradé_sans_nom_4);
      }

      .st6 {
        stroke: url(#Dégradé_sans_nom_5);
      }

      .st7 {
        stroke: url(#Dégradé_sans_nom_2);
      }

      .st8 {
        stroke: url(#Dégradé_sans_nom_8);
      }

      .st9 {
        fill: url(#Dégradé_sans_nom);
      }
    </style>
    <linearGradient id="Dégradé_sans_nom" data-name="Dégradé sans nom" x1="174.3" y1="91.8" x2="200.1" y2="91.8" gradientTransform="translate(0 202) scale(1 -1)" gradientUnits="userSpaceOnUse">
      <stop offset="0" stop-color="#9584f6"/>
      <stop offset="0" stop-color="#9e87f4"/>
      <stop offset=".2" stop-color="#b790f0"/>
      <stop offset=".3" stop-color="#e19fe9"/>
      <stop offset=".4" stop-color="#e8a0d5"/>
      <stop offset=".6" stop-color="#f9a4aa"/>
      <stop offset=".7" stop-color="#fe9c75"/>
      <stop offset=".9" stop-color="#ea6346"/>
      <stop offset="1" stop-color="#db3750"/>
    </linearGradient>
    <linearGradient id="Dégradé_sans_nom_2" data-name="Dégradé sans nom 2" x1="82.8" y1="91.3" x2="97.4" y2="91.3" gradientTransform="translate(0 202) scale(1 -1)" gradientUnits="userSpaceOnUse">
      <stop offset="0" stop-color="#ff7bac"/>
      <stop offset=".2" stop-color="#ff7bac" stop-opacity=".8"/>
      <stop offset=".6" stop-color="#ff7bac" stop-opacity=".4"/>
      <stop offset=".9" stop-color="#ff7bac" stop-opacity=".1"/>
      <stop offset="1" stop-color="#ff7bac" stop-opacity="0"/>
    </linearGradient>
    <linearGradient id="Dégradé_sans_nom_3" data-name="Dégradé sans nom 3" x1="96.8" y1="91.5" x2="114.6" y2="91.5" gradientTransform="translate(0 202) scale(1 -1)" gradientUnits="userSpaceOnUse">
      <stop offset="0" stop-color="#ff7bac"/>
      <stop offset=".2" stop-color="#ff7bac" stop-opacity=".8"/>
      <stop offset=".6" stop-color="#ff7bac" stop-opacity=".4"/>
      <stop offset=".9" stop-color="#ff7bac" stop-opacity=".1"/>
      <stop offset="1" stop-color="#ff7bac" stop-opacity="0"/>
    </linearGradient>
    <linearGradient id="Dégradé_sans_nom_4" data-name="Dégradé sans nom 4" x1="111.7" y1="91.3" x2="126" y2="91.3" gradientTransform="translate(0 202) scale(1 -1)" gradientUnits="userSpaceOnUse">
      <stop offset="0" stop-color="#ff7bac"/>
      <stop offset=".2" stop-color="#ff7bac" stop-opacity=".8"/>
      <stop offset=".6" stop-color="#ff7bac" stop-opacity=".4"/>
      <stop offset=".9" stop-color="#ff7bac" stop-opacity=".1"/>
      <stop offset="1" stop-color="#ff7bac" stop-opacity="0"/>
    </linearGradient>
    <linearGradient id="Dégradé_sans_nom_5" data-name="Dégradé sans nom 5" x1="124.3" y1="91.5" x2="142.1" y2="91.5" gradientTransform="translate(0 202) scale(1 -1)" gradientUnits="userSpaceOnUse">
      <stop offset="0" stop-color="#ff7bac"/>
      <stop offset=".2" stop-color="#ff7bac" stop-opacity=".8"/>
      <stop offset=".6" stop-color="#ff7bac" stop-opacity=".4"/>
      <stop offset=".9" stop-color="#ff7bac" stop-opacity=".1"/>
      <stop offset="1" stop-color="#ff7bac" stop-opacity="0"/>
    </linearGradient>
    <linearGradient id="Dégradé_sans_nom_6" data-name="Dégradé sans nom 6" x1="149.1" y1="91.1" x2="162.3" y2="91.1" gradientTransform="translate(0 202) scale(1 -1)" gradientUnits="userSpaceOnUse">
      <stop offset="0" stop-color="#ff7bac"/>
      <stop offset=".2" stop-color="#ff7bac" stop-opacity=".8"/>
      <stop offset=".6" stop-color="#ff7bac" stop-opacity=".4"/>
      <stop offset=".9" stop-color="#ff7bac" stop-opacity=".1"/>
      <stop offset="1" stop-color="#ff7bac" stop-opacity="0"/>
    </linearGradient>
    <linearGradient id="Dégradé_sans_nom_7" data-name="Dégradé sans nom 7" x1="164.6" y1="91.3" x2="178" y2="91.3" gradientTransform="translate(0 202) scale(1 -1)" gradientUnits="userSpaceOnUse">
      <stop offset="0" stop-color="#ff7bac"/>
      <stop offset=".2" stop-color="#ff7bac" stop-opacity=".8"/>
      <stop offset=".6" stop-color="#ff7bac" stop-opacity=".4"/>
      <stop offset=".9" stop-color="#ff7bac" stop-opacity=".1"/>
      <stop offset="1" stop-color="#ff7bac" stop-opacity="0"/>
    </linearGradient>
    <linearGradient id="Dégradé_sans_nom_8" data-name="Dégradé sans nom 8" x1="197.3" y1="91.3" x2="211.6" y2="91.3" gradientTransform="translate(0 202) scale(1 -1)" gradientUnits="userSpaceOnUse">
      <stop offset="0" stop-color="#ff7bac"/>
      <stop offset=".2" stop-color="#ff7bac" stop-opacity=".8"/>
      <stop offset=".6" stop-color="#ff7bac" stop-opacity=".4"/>
      <stop offset=".9" stop-color="#ff7bac" stop-opacity=".1"/>
      <stop offset="1" stop-color="#ff7bac" stop-opacity="0"/>
    </linearGradient>
  </defs>
  <g id="Calque_1-2">
    <g id="_6YGTzN">
      <image id="_6YGTzN-2" class="st1" width="736" height="1472" transform="translate(294.2 -3.8) rotate(90) scale(.3 .2)" xlink:href="Fichier 2-1.png"/>
    </g>
    <path class="st9" d="M190.8,111.2h-5.9l-5.4,6.8h5.2l3.1-3.8,7,7.8h5.2s-9.3-10.7-9.3-10.7ZM191,110.2l5.1-6.5h-5.2l-3,3.8-8.4-9.2h-5.2l10.4,11.8h6.3Z"/>
    <g>
      <path class="st7" d="M82.9,103.8h6.2c5.6,0,8.2,2.8,8.2,7s-2.5,7-8.1,7h-6.2v-14h0ZM89.4,114.7c2.9,0,3.7-1.6,3.7-4s-.8-3.9-3.8-3.9h-2.3v7.9h2.4Z"/>
      <path class="st2" d="M105.7,103.2l8.7,14.5h-4.8l-3.9-6.6-3.9,6.6h-4.8l8.7-14.5h0Z"/>
      <path class="st5" d="M116.8,106.8h-5v-3.1h14v3.1h-5v10.9h-4.1v-10.9h0Z"/>
      <path class="st6" d="M133.2,103.2l8.7,14.5h-4.8l-3.9-6.6-3.9,6.6h-4.8l8.7-14.5h0Z"/>
      <path class="st4" d="M149.3,102.7l8.8,7.5v-6.5h4.1v15l-8.8-7.5v6.5h-4.1v-15h0Z"/>
      <path class="st3" d="M164.7,103.8h13.2v3.1h-9.1v7.9h9.1v3.1h-13.2v-14ZM170,109.2h6.6v3.1h-6.6v-3.1Z"/>
      <path class="st8" d="M202.4,106.8h-5v-3.1h14v3.1h-5v10.9h-4.1v-10.9h0Z"/>
    </g>
    <g>
      <path class="st0" d="M194.4,131.6l-.5,1.3h-.3l1.4-3.7h.3l1.4,3.7h-.3l-.5-1.3h-1.6,0ZM195.9,131.4c-.4-1.1-.6-1.6-.7-1.9h0c0,.3-.3.9-.7,1.9h1.4,0Z"/>
      <path class="st0" d="M199.4,132.8c0,.9-.4,1.3-1.1,1.3s-1-.4-1.1-.8h.3c.1.4.4.6.8.6.7,0,.9-.4.9-1.1v-.3c-.1.4-.4.5-.9.5s-1.1-.5-1.1-1.3.5-1.4,1.1-1.4.8.3.9.5c0-.1,0-.3,0-.4h.2c0,.1,0,.5,0,.8v1.7h0ZM197.5,131.6c0,.6.3,1.1.9,1.1s.9-.4.9-1.1-.2-1.1-.9-1.1-.9.5-.9,1.1h0Z"/>
      <path class="st0" d="M200.4,131.6c0,.7.4,1.1.9,1.1s.7-.3.8-.5h.3c-.1.4-.4.8-1.1.8s-1.1-.7-1.1-1.4.4-1.4,1.2-1.4,1.1.7,1.1,1.2v.2h-2ZM202.1,131.4c0-.5-.3-.9-.8-.9s-.8.4-.9.9h1.7Z"/>
      <path class="st0" d="M203,130.9v-.7h.3c0,0,0,.4,0,.5.1-.3.3-.6.9-.6s.9.3.9,1v1.7h-.3v-1.7c0-.5-.2-.8-.7-.8s-.9.5-.9,1.1v1.4h-.3v-2h0Z"/>
      <path class="st0" d="M207.9,132.1c-.1.5-.4.9-1,.9s-1.1-.5-1.1-1.4.4-1.4,1.2-1.4,1,.5,1,.9h-.3c0-.3-.3-.6-.7-.6s-.9.5-.9,1.1.3,1.1.9,1.1.6-.2.8-.6h.3Z"/>
      <path class="st0" d="M208.6,130.3c.5,1.5.8,2.2.9,2.4h0c.1-.3.3-.9.8-2.4h.3l-1,2.8c-.3.8-.5,1-.9,1s-.2,0-.2,0v-.3c0,0,.2,0,.2,0,.4,0,.5-.2.7-.7l-1-2.8h.3Z"/>
    </g>
  </g>
</svg>