<?xml version="1.0" encoding="UTF-8"?>
<svg id="Calque_2" data-name="Calque 2" xmlns="http://www.w3.org/2000/svg" xmlns:xlink="http://www.w3.org/1999/xlink" viewBox="0 0 132.93 33.22">
  <defs>
    <style>
      .cls-1 {
        fill: #f1ebf9;
      }

      .cls-2 {
        stroke: url(#Dégradé_sans_nom_38);
      }

      .cls-2, .cls-3, .cls-4, .cls-5, .cls-6, .cls-7, .cls-8, .cls-9 {
        stroke-miterlimit: 10;
        stroke-width: .25px;
      }

      .cls-2, .cls-3, .cls-4, .cls-5, .cls-6, .cls-7, .cls-8, .cls-9, .cls-10 {
        fill: #fff;
      }

      .cls-3 {
        stroke: url(#Dégradé_sans_nom_38-6);
      }

      .cls-4 {
        stroke: url(#Dégradé_sans_nom_38-8);
      }

      .cls-5 {
        stroke: url(#Dégradé_sans_nom_38-5);
      }

      .cls-6 {
        stroke: url(#Dégradé_sans_nom_38-3);
      }

      .cls-7 {
        stroke: url(#Dégradé_sans_nom_38-2);
      }

      .cls-8 {
        stroke: url(#Dégradé_sans_nom_38-4);
      }

      .cls-9 {
        stroke: url(#Dégradé_sans_nom_38-7);
      }

      .cls-11 {
        fill: url(#Dégradé_sans_nom_35);
      }
    </style>
    <linearGradient id="Dégradé_sans_nom_38" data-name="Dégradé sans nom 38" x1="34.86" y1="15.35" x2="46.1" y2="15.35" gradientUnits="userSpaceOnUse">
      <stop offset="0" stop-color="#ff7bac"/>
      <stop offset=".22" stop-color="#ff7bac" stop-opacity=".76"/>
      <stop offset=".6" stop-color="#ff7bac" stop-opacity=".36"/>
      <stop offset=".87" stop-color="#ff7bac" stop-opacity=".1"/>
      <stop offset="1" stop-color="#ff7bac" stop-opacity="0"/>
    </linearGradient>
    <linearGradient id="Dégradé_sans_nom_38-2" data-name="Dégradé sans nom 38" x1="45.58" y1="15.1" x2="59.31" y2="15.1" xlink:href="#Dégradé_sans_nom_38"/>
    <linearGradient id="Dégradé_sans_nom_38-3" data-name="Dégradé sans nom 38" x1="57.02" x2="67.99" xlink:href="#Dégradé_sans_nom_38"/>
    <linearGradient id="Dégradé_sans_nom_38-4" data-name="Dégradé sans nom 38" x1="66.67" y1="15.1" x2="80.4" y2="15.1" xlink:href="#Dégradé_sans_nom_38"/>
    <linearGradient id="Dégradé_sans_nom_38-5" data-name="Dégradé sans nom 38" x1="85.71" y1="15.35" x2="95.82" y2="15.35" xlink:href="#Dégradé_sans_nom_38"/>
    <linearGradient id="Dégradé_sans_nom_38-6" data-name="Dégradé sans nom 38" x1="97.52" x2="107.91" xlink:href="#Dégradé_sans_nom_38"/>
    <linearGradient id="Dégradé_sans_nom_38-7" data-name="Dégradé sans nom 38" x1="104.81" y1="14.85" x2="124.78" y2="14.85" xlink:href="#Dégradé_sans_nom_38"/>
    <linearGradient id="Dégradé_sans_nom_38-8" data-name="Dégradé sans nom 38" x1="121.96" x2="132.93" xlink:href="#Dégradé_sans_nom_38"/>
    <linearGradient id="Dégradé_sans_nom_35" data-name="Dégradé sans nom 35" x1="3.28" y1="14.85" x2="24.8" y2="14.85" gradientUnits="userSpaceOnUse">
      <stop offset="0" stop-color="#9584f6"/>
      <stop offset=".06" stop-color="#9e87f4"/>
      <stop offset=".16" stop-color="#b790f0"/>
      <stop offset=".29" stop-color="#e19fe9"/>
      <stop offset=".39" stop-color="#e8a0d5"/>
      <stop offset=".57" stop-color="#f9a4aa"/>
      <stop offset=".73" stop-color="#fe9c75"/>
      <stop offset=".87" stop-color="#ea6346"/>
      <stop offset=".99" stop-color="#db3750"/>
    </linearGradient>
  </defs>
  <g id="Calque_1-2" data-name="Calque 1">
    <g>
      <path class="cls-2" d="M34.98,9.99h4.73c4.31,0,6.25,2.14,6.25,5.36s-1.93,5.36-6.24,5.36h-4.75v-10.72ZM39.91,18.37c2.26,0,2.84-1.21,2.84-3.04s-.6-3-2.88-3h-1.77v6.04h1.81Z"/>
      <path class="cls-7" d="M52.44,9.6l6.64,11.11h-3.64l-3-5.03-3,5.03h-3.64l6.64-11.11Z"/>
      <path class="cls-6" d="M60.94,12.33h-3.8v-2.34h10.72v2.34h-3.8v8.38h-3.12v-8.38Z"/>
      <path class="cls-8" d="M73.54,9.6l6.64,11.11h-3.64l-3-5.03-3,5.03h-3.64l6.65-11.11Z"/>
      <path class="cls-5" d="M85.84,9.21l6.74,5.75v-4.97h3.12v11.5l-6.74-5.75v4.97h-3.12v-11.5Z"/>
      <path class="cls-3" d="M97.65,9.99h10.13v2.34h-7.01v6.04h7.01v2.34h-10.13v-10.72ZM101.74,14.18h5.07v2.34h-5.07v-2.34Z"/>
      <path class="cls-9" d="M113.34,15.35l-8.25-9.36h3.92l6.3,6.88,2.28-2.88h3.92l-4.25,5.36,7.25,8.36h-3.92l-5.28-5.88-2.3,2.88h-3.92l4.25-5.36Z"/>
      <path class="cls-4" d="M125.89,12.33h-3.8v-2.34h10.72v2.34h-3.8v8.38h-3.12v-8.38Z"/>
    </g>
    <g>
      <path class="cls-1" d="M120.44,31.37l-.36.99h-.22l1.05-2.86h.26l1.1,2.86h-.24l-.37-.99h-1.21ZM121.57,31.17c-.32-.85-.48-1.26-.54-1.45h0c-.07.22-.25.72-.51,1.45h1.06Z"/>
      <path class="cls-1" d="M124.3,32.23c0,.65-.29,1-.88,1-.53,0-.75-.3-.8-.61h.21c.07.28.31.42.6.42.53,0,.68-.34.68-.86v-.21c-.11.27-.31.41-.68.41-.48,0-.85-.39-.85-1.02,0-.69.39-1.07.88-1.07.42,0,.6.2.65.36,0-.12,0-.26.01-.31h.19c0,.07,0,.4,0,.59v1.31ZM122.8,31.33c0,.49.26.84.65.84.51,0,.67-.34.67-.87s-.16-.84-.65-.84-.66.4-.66.87Z"/>
      <path class="cls-1" d="M125.02,31.37c0,.53.27.85.66.85s.51-.22.59-.38h.21c-.09.27-.3.58-.81.58-.62,0-.86-.54-.86-1.05,0-.58.29-1.09.89-1.09.63,0,.83.54.83.93,0,.06,0,.11,0,.17h-1.5ZM126.31,31.19c0-.41-.22-.72-.63-.72s-.61.29-.66.72h1.28Z"/>
      <path class="cls-1" d="M127.02,30.83c0-.18,0-.35,0-.52h.2c0,.07.01.33,0,.39.09-.21.26-.44.68-.44.36,0,.69.2.69.77v1.33h-.2v-1.29c0-.36-.15-.6-.51-.6-.49,0-.65.41-.65.85v1.04h-.21v-1.53Z"/>
      <path class="cls-1" d="M130.77,31.76c-.1.36-.33.65-.79.65-.51,0-.88-.38-.88-1.06,0-.56.3-1.08.9-1.08.52,0,.73.37.77.65h-.21c-.06-.24-.22-.46-.56-.46-.43,0-.68.37-.68.88s.23.88.66.88c.3,0,.48-.15.58-.46h.21Z"/>
      <path class="cls-1" d="M131.28,30.32c.41,1.17.59,1.65.66,1.87h0c.08-.25.25-.72.64-1.87h.21l-.77,2.16c-.22.61-.36.74-.73.74-.07,0-.12,0-.19-.01v-.21c.06,0,.12.01.18.01.29,0,.39-.14.54-.56l-.78-2.13h.22Z"/>
    </g>
    <path class="cls-10" d="M18.8,0h-9.53C4.15,0,0,4.15,0,9.27v11.16c0,5.12,4.15,9.27,9.27,9.27h9.53c5.12,0,9.27-4.15,9.27-9.27v-11.16c0-5.12-4.15-9.27-9.27-9.27ZM7.62,5.03l6.98,7.63,2.53-3.2h4.34l-4.27,5.39h-5.26L3.28,5.03h4.34ZM20.45,24.67l-5.85-6.52-2.55,3.2h-4.34l4.45-5.62h4.89l7.75,8.94h-4.35Z"/>
    <polygon class="cls-10" points="11.94 14.85 3.28 5.03 7.62 5.03 14.6 12.66 17.13 9.46 21.47 9.46 17.2 14.85 11.94 14.85"/>
    <polygon class="cls-10" points="24.8 24.67 20.45 24.67 14.6 18.15 12.05 21.35 7.71 21.35 12.16 15.73 17.05 15.73 24.8 24.67"/>
    <path class="cls-11" d="M17.05,15.73h-4.89l-4.45,5.62h4.34l2.55-3.2,5.85,6.52h4.35l-7.75-8.94ZM17.2,14.85l4.27-5.39h-4.34l-2.53,3.2-6.98-7.63H3.28l8.66,9.82h5.26Z"/>
  </g>
</svg>