<?xml version="1.0" encoding="UTF-8"?>
<svg id="Calque_2" data-name="Calque 2" xmlns="http://www.w3.org/2000/svg" xmlns:xlink="http://www.w3.org/1999/xlink" viewBox="0 0 128.77 35.68">
  <defs>
    <style>
      .cls-1 {
        fill: #f1ebf9;
      }

      .cls-2 {
        stroke: url(#Dégradé_sans_nom_38);
      }

      .cls-2, .cls-3, .cls-4, .cls-5, .cls-6, .cls-7, .cls-8 {
        fill: #fff;
        stroke-miterlimit: 10;
        stroke-width: .25px;
      }

      .cls-3 {
        stroke: url(#Dégradé_sans_nom_38-6);
      }

      .cls-4 {
        stroke: url(#Dégradé_sans_nom_38-5);
      }

      .cls-5 {
        stroke: url(#Dégradé_sans_nom_38-3);
      }

      .cls-6 {
        stroke: url(#Dégradé_sans_nom_38-2);
      }

      .cls-7 {
        stroke: url(#Dégradé_sans_nom_38-4);
      }

      .cls-8 {
        stroke: url(#Dégradé_sans_nom_38-7);
      }

      .cls-9 {
        fill: url(#Dégradé_sans_nom_35);
      }
    </style>
    <linearGradient id="Dégradé_sans_nom_35" data-name="Dégradé sans nom 35" x1="91.44" y1="11.8" x2="117.29" y2="11.8" gradientUnits="userSpaceOnUse">
      <stop offset="0" stop-color="#9584f6"/>
      <stop offset=".06" stop-color="#9e87f4"/>
      <stop offset=".16" stop-color="#b790f0"/>
      <stop offset=".29" stop-color="#e19fe9"/>
      <stop offset=".39" stop-color="#e8a0d5"/>
      <stop offset=".57" stop-color="#f9a4aa"/>
      <stop offset=".73" stop-color="#fe9c75"/>
      <stop offset=".87" stop-color="#ea6346"/>
      <stop offset=".99" stop-color="#db3750"/>
    </linearGradient>
    <linearGradient id="Dégradé_sans_nom_38" data-name="Dégradé sans nom 38" x1="0" y1="12.37" x2="14.58" y2="12.37" gradientUnits="userSpaceOnUse">
      <stop offset="0" stop-color="#ff7bac"/>
      <stop offset=".22" stop-color="#ff7bac" stop-opacity=".76"/>
      <stop offset=".6" stop-color="#ff7bac" stop-opacity=".36"/>
      <stop offset=".87" stop-color="#ff7bac" stop-opacity=".1"/>
      <stop offset="1" stop-color="#ff7bac" stop-opacity="0"/>
    </linearGradient>
    <linearGradient id="Dégradé_sans_nom_38-2" data-name="Dégradé sans nom 38" x1="14.01" y1="12.05" x2="31.79" y2="12.05" xlink:href="#Dégradé_sans_nom_38"/>
    <linearGradient id="Dégradé_sans_nom_38-3" data-name="Dégradé sans nom 38" x1="28.91" x2="43.13" xlink:href="#Dégradé_sans_nom_38"/>
    <linearGradient id="Dégradé_sans_nom_38-4" data-name="Dégradé sans nom 38" x1="41.52" y1="12.05" x2="59.3" y2="12.05" xlink:href="#Dégradé_sans_nom_38"/>
    <linearGradient id="Dégradé_sans_nom_38-5" data-name="Dégradé sans nom 38" x1="66.33" y1="12.37" x2="79.44" y2="12.37" xlink:href="#Dégradé_sans_nom_38"/>
    <linearGradient id="Dégradé_sans_nom_38-6" data-name="Dégradé sans nom 38" x1="81.74" x2="95.2" xlink:href="#Dégradé_sans_nom_38"/>
    <linearGradient id="Dégradé_sans_nom_38-7" data-name="Dégradé sans nom 38" x1="114.54" x2="128.77" xlink:href="#Dégradé_sans_nom_38"/>
  </defs>
  <g id="Calque_1-2" data-name="Calque 1">
    <path class="cls-9" d="M107.98,12.85h-5.87l-5.35,6.75h5.21l3.06-3.84,7.03,7.83h5.23l-9.31-10.74ZM108.16,11.8l5.13-6.48h-5.21l-3.04,3.84L96.65,0h-5.21l10.4,11.8h6.32Z"/>
    <g>
      <path class="cls-2" d="M.12,5.38h6.18c5.62,0,8.16,2.8,8.16,6.99s-2.52,6.99-8.13,6.99H.12V5.38ZM6.56,16.31c2.95,0,3.71-1.58,3.71-3.96s-.79-3.91-3.76-3.91h-2.31v7.88h2.36Z"/>
      <path class="cls-6" d="M22.9,4.87l8.67,14.49h-4.75l-3.91-6.56-3.91,6.56h-4.75l8.67-14.49Z"/>
      <path class="cls-5" d="M33.99,8.43h-4.96v-3.05h13.98v3.05h-4.96v10.93h-4.07v-10.93Z"/>
      <path class="cls-7" d="M50.41,4.87l8.67,14.49h-4.75l-3.91-6.56-3.91,6.56h-4.75l8.67-14.49Z"/>
      <path class="cls-4" d="M66.46,4.36l8.79,7.5v-6.48h4.07v14.99l-8.79-7.5v6.48h-4.07V4.36Z"/>
      <path class="cls-3" d="M81.86,5.38h13.22v3.05h-9.15v7.88h9.15v3.05h-13.22V5.38ZM87.2,10.84h6.61v3.05h-6.61v-3.05Z"/>
      <path class="cls-8" d="M119.62,8.43h-4.96v-3.05h13.98v3.05h-4.96v10.93h-4.07v-10.93Z"/>
    </g>
    <g>
      <path class="cls-1" d="M111.59,33.27l-.48,1.29h-.29l1.37-3.73h.34l1.43,3.73h-.31l-.49-1.29h-1.57ZM113.07,33c-.42-1.11-.63-1.64-.7-1.89h0c-.09.28-.33.94-.67,1.89h1.38Z"/>
      <path class="cls-1" d="M116.63,34.38c0,.85-.38,1.3-1.15,1.3-.69,0-.98-.39-1.05-.79h.27c.1.37.4.55.78.55.69,0,.89-.45.89-1.13v-.28c-.14.35-.41.53-.89.53-.62,0-1.1-.51-1.1-1.33,0-.9.51-1.4,1.14-1.4.54,0,.78.26.85.47,0-.15.01-.34.02-.41h.25c0,.1-.01.52-.01.77v1.71ZM114.66,33.22c0,.63.34,1.09.85,1.09.67,0,.87-.44.87-1.14s-.21-1.09-.85-1.09-.86.53-.86,1.14Z"/>
      <path class="cls-1" d="M117.56,33.26c0,.69.35,1.11.86,1.11s.67-.28.77-.5h.27c-.11.35-.39.75-1.05.75-.81,0-1.12-.7-1.12-1.38,0-.76.38-1.42,1.16-1.42.82,0,1.08.71,1.08,1.21,0,.07,0,.15,0,.22h-1.96ZM119.25,33.02c0-.53-.29-.94-.82-.94s-.8.38-.86.94h1.68Z"/>
      <path class="cls-1" d="M120.18,32.57c0-.23,0-.46,0-.67h.26c.01.09.02.43.01.51.12-.27.34-.57.89-.57.48,0,.9.27.9,1v1.73h-.27v-1.69c0-.48-.2-.78-.66-.78-.64,0-.85.53-.85,1.11v1.36h-.27v-1.99Z"/>
      <path class="cls-1" d="M125.06,33.78c-.13.47-.44.85-1.03.85-.67,0-1.14-.5-1.14-1.39,0-.73.39-1.41,1.17-1.41.68,0,.96.48,1,.85h-.27c-.08-.31-.28-.6-.74-.6-.57,0-.89.48-.89,1.15s.3,1.15.86,1.15c.39,0,.62-.2.76-.6h.27Z"/>
      <path class="cls-1" d="M125.73,31.89c.54,1.53.77,2.16.86,2.44h0c.11-.32.32-.94.84-2.44h.28l-1,2.82c-.28.79-.47.97-.95.97-.1,0-.16,0-.25-.02v-.27c.08.01.16.02.24.02.38,0,.51-.19.7-.74l-1.02-2.78h.29Z"/>
    </g>
  </g>
</svg>