<?xml version="1.0" encoding="UTF-8"?>
<svg id="Calque_2" data-name="Calque 2" xmlns="http://www.w3.org/2000/svg" xmlns:xlink="http://www.w3.org/1999/xlink" viewBox="0 0 44.74 47.33">
  <defs>
    <style>
      .cls-1 {
        fill: url(#Dégradé_sans_nom_9);
      }

      .cls-2 {
        fill: #fff;
      }
    </style>
    <linearGradient id="Dégradé_sans_nom_9" data-name="Dégradé sans nom 9" x1="5.23" y1="-60.7" x2="39.52" y2="-60.7" gradientTransform="translate(0 -37.04) scale(1 -1)" gradientUnits="userSpaceOnUse">
      <stop offset="0" stop-color="#9584f6"/>
      <stop offset=".06" stop-color="#9e87f4"/>
      <stop offset=".16" stop-color="#b790f0"/>
      <stop offset=".29" stop-color="#e19fe9"/>
      <stop offset=".39" stop-color="#e8a0d5"/>
      <stop offset=".57" stop-color="#f9a4aa"/>
      <stop offset=".73" stop-color="#fe9c75"/>
      <stop offset=".87" stop-color="#ea6346"/>
      <stop offset=".99" stop-color="#db3750"/>
    </linearGradient>
  </defs>
  <g id="Calque_1-2" data-name="Calque 1">
    <path class="cls-2" d="M35.47,0H9.28C4.16,0,0,4.15,0,9.27v28.78c0,5.12,4.16,9.28,9.28,9.28h26.19c5.12,0,9.27-4.16,9.27-9.28V9.27C44.74,4.15,40.59,0,35.47,0ZM5.23,8.02h6.92l11.12,12.16,4.03-5.1h6.92l-6.8,8.58h-8.4S5.23,8.02,5.23,8.02ZM32.6,39.31l-9.33-10.39-4.06,5.09h-6.92l7.1-8.94h7.77l12.36,14.24h-6.92Z"/>
    <polygon class="cls-2" points="19.02 23.66 5.23 8.02 12.15 8.02 23.27 20.18 27.3 15.08 34.22 15.08 27.42 23.66 19.02 23.66"/>
    <polygon class="cls-2" points="39.52 39.31 32.6 39.31 23.27 28.92 19.21 34.01 12.29 34.01 19.39 25.07 27.16 25.07 39.52 39.31"/>
    <path class="cls-1" d="M27.16,25.07h-7.77l-7.1,8.94h6.92l4.06-5.09,9.33,10.39h6.92s-12.36-14.24-12.36-14.24ZM27.42,23.66l6.8-8.58h-6.92l-4.03,5.1-11.12-12.16h-6.92l13.79,15.64s8.4,0,8.4,0Z"/>
  </g>
</svg>